# xmcd CD database file
#
# Track frame offsets:
#	150
#	27615
#	64792
#	85540
#	103435
#	131052
#	151962
#	190942
#	214482
#	251010
#	269610
#	300220
#
# Disc length: 4545 seconds
#
# Revision: 0
# Processed by: cddbd v1.4PL0 Copyright (c) Steve Scherf et al.
# Submitted via: CDex 1.50Beta7
#
DISCID=ae11bf0c
DTITLE=Various Artist - Ellington For Lovers
DYEAR=2000
DGENRE=Jazz
TTITLE0=Sophisticated Lady - Harry Allen Quintet
TTITLE1=Blues To Be There - Danny Moss - Roy Williams Quintet
TTITLE2=Do Nothin' Till You Hear From Me - Wycliffe Gordan
TTITLE3=Warm Valley - Allan Vache Swingtet
TTITLE4=In A Mellow Tone - The New York Allstars
TTITLE5=Mood Indigo - Danny Moss - Roy Williams Quintet
TTITLE6=Satin Doll - Bill Allred and Roy Williams
TTITLE7=I Got It Bad And That Ain't Good - Harry Allen Quintet
TTITLE8=Just Squeeze Me - Warren Vache - Allan Vache
TTITLE9=Azalea - Butch Miles and Friends
TTITLE10=Creole Love Call - Oscar Klein's Anniversary Band
TTITLE11=Duke Ellington Medley - Rex Allen's Swing Express
EXTD=YEAR: 2000
EXTT0=
EXTT1=
EXTT2=
EXTT3=
EXTT4=
EXTT5=
EXTT6=
EXTT7=
EXTT8=
EXTT9=
EXTT10=
EXTT11=
PLAYORDER=
